<?xml version="1.0" standalone="no"?>
<!DOCTYPE svg PUBLIC "-//W3C//DTD SVG 1.1//EN" "http://www.w3.org/Graphics/SVG/1.1/DTD/svg11.dtd">
<svg width="110mm" height="60mm" viewBox="0 -60 110 60" xmlns="http://www.w3.org/2000/svg" version="1.1">
<title>OpenSCAD Model</title>
<path d="
M 108.39,-0.0384369 L 108.765,-0.152252 L 109.111,-0.337067 L 109.414,-0.5858 L 109.663,-0.88887 L 109.848,-1.23463
 L 109.962,-1.60983 L 110,-2 L 110,-58 L 109.962,-58.3902 L 109.848,-58.7654 L 109.663,-59.1111
 L 109.414,-59.4142 L 109.111,-59.6629 L 108.765,-59.8477 L 108.39,-59.9616 L 108,-60 L 2,-60
 L 1.60983,-59.9616 L 1.23463,-59.8477 L 0.88887,-59.6629 L 0.5858,-59.4142 L 0.337067,-59.1111 L 0.152252,-58.7654
 L 0.0384369,-58.3902 L 0,-58 L 0,-2 L 0.0384369,-1.60983 L 0.152252,-1.23463 L 0.337067,-0.88887
 L 0.5858,-0.5858 L 0.88887,-0.337067 L 1.23463,-0.152252 L 1.60983,-0.0384369 L 2,-0 L 108,-0
 z
M 2.86372,-55.5612 L 2.51526,-55.7387 L 2.23872,-56.0153 L 2.06117,-56.3637 L 2,-56.75 L 2.06117,-57.1363
 L 2.23872,-57.4847 L 2.51526,-57.7613 L 2.86372,-57.9388 L 3.25,-58 L 3.63626,-57.9388 L 3.98473,-57.7613
 L 4.26126,-57.4847 L 4.43881,-57.1363 L 4.5,-56.75 L 4.43881,-56.3637 L 4.26126,-56.0153 L 3.98473,-55.7387
 L 3.63626,-55.5612 L 3.25,-55.5 z
M 106.364,-55.5612 L 106.015,-55.7387 L 105.739,-56.0153 L 105.561,-56.3637 L 105.5,-56.75 L 105.561,-57.1363
 L 105.739,-57.4847 L 106.015,-57.7613 L 106.364,-57.9388 L 106.75,-58 L 107.136,-57.9388 L 107.485,-57.7613
 L 107.761,-57.4847 L 107.939,-57.1363 L 108,-56.75 L 107.939,-56.3637 L 107.761,-56.0153 L 107.485,-55.7387
 L 107.136,-55.5612 L 106.75,-55.5 z
M 86.1173,-29.0761 L 85.7929,-29.2929 L 85.5761,-29.6173 L 85.5,-30 L 85.5761,-30.3827 L 85.7929,-30.7071
 L 86.1173,-30.9239 L 86.5,-31 L 86.8827,-30.9239 L 87.2071,-30.7071 L 87.4239,-30.3827 L 87.5,-30
 L 87.4239,-29.6173 L 87.2071,-29.2929 L 86.8827,-29.0761 L 86.5,-29 z
M 86.1173,-22.5761 L 85.7929,-22.7929 L 85.5761,-23.1173 L 85.5,-23.5 L 85.5761,-23.8827 L 85.7929,-24.2071
 L 86.1173,-24.4239 L 86.5,-24.5 L 86.8827,-24.4239 L 87.2071,-24.2071 L 87.4239,-23.8827 L 87.5,-23.5
 L 87.4239,-23.1173 L 87.2071,-22.7929 L 86.8827,-22.5761 L 86.5,-22.5 z
M 2.86372,-2.06117 L 2.51526,-2.23872 L 2.23872,-2.51526 L 2.06117,-2.86372 L 2,-3.25 L 2.06117,-3.63626
 L 2.23872,-3.98473 L 2.51526,-4.26126 L 2.86372,-4.43881 L 3.25,-4.5 L 3.63626,-4.43881 L 3.98473,-4.26126
 L 4.26126,-3.98473 L 4.43881,-3.63626 L 4.5,-3.25 L 4.43881,-2.86372 L 4.26126,-2.51526 L 3.98473,-2.23872
 L 3.63626,-2.06117 L 3.25,-2 z
M 106.364,-2.06117 L 106.015,-2.23872 L 105.739,-2.51526 L 105.561,-2.86372 L 105.5,-3.25 L 105.561,-3.63626
 L 105.739,-3.98473 L 106.015,-4.26126 L 106.364,-4.43881 L 106.75,-4.5 L 107.136,-4.43881 L 107.485,-4.26126
 L 107.761,-3.98473 L 107.939,-3.63626 L 108,-3.25 L 107.939,-2.86372 L 107.761,-2.51526 L 107.485,-2.23872
 L 107.136,-2.06117 L 106.75,-2 z
" stroke="black" fill="lightgray" stroke-width="0.5"/>
</svg>
