<?xml version="1.0"?>
<!DOCTYPE svg PUBLIC "-//W3C//DTD SVG 1.1//EN" "http://www.w3.org/Graphics/SVG/1.1/DTD/svg11.dtd">
<svg width="112.2mm" height="62.2mm" viewBox="0 0 112.2 62.2" xmlns="http://www.w3.org/2000/svg" version="1.1">
<g id="Sketch001" transform="translate(56.100000,31.100000) scale(1,-1)">
<path id="Sketch001_w0000"  d="M -53.0 30.0 A 2 2 0 0 1 -55 28L -55.0 -28.0 A 2 2 0 0 1 -53 -30L 53.0 -30.0 A 2 2 0 0 1 55 -28L 55.0 28.0 A 2 2 0 0 1 53 30L -53.0 30.0 " stroke="#000000" stroke-width="0.35 px" style="stroke-width:0.35;stroke-miterlimit:4;stroke-dasharray:none;fill:none;fill-rule: evenodd "/>
<circle cx="-51.75" cy="26.75" r="1.5" stroke="#000000" stroke-width="0.35 px" style="stroke-width:0.35;stroke-miterlimit:4;stroke-dasharray:none;fill:none"/>
<circle cx="-51.75" cy="-26.749999999999996" r="1.5" stroke="#000000" stroke-width="0.35 px" style="stroke-width:0.35;stroke-miterlimit:4;stroke-dasharray:none;fill:none"/>
<circle cx="51.74999999999999" cy="-26.749999999999996" r="1.5" stroke="#000000" stroke-width="0.35 px" style="stroke-width:0.35;stroke-miterlimit:4;stroke-dasharray:none;fill:none"/>
<circle cx="51.74999999999999" cy="26.75" r="1.5" stroke="#000000" stroke-width="0.35 px" style="stroke-width:0.35;stroke-miterlimit:4;stroke-dasharray:none;fill:none"/>
<circle cx="31.5" cy="-6.2" r="1.0" stroke="#000000" stroke-width="0.35 px" style="stroke-width:0.35;stroke-miterlimit:4;stroke-dasharray:none;fill:none"/>
<circle cx="31.5" cy="0.0" r="1.0" stroke="#000000" stroke-width="0.35 px" style="stroke-width:0.35;stroke-miterlimit:4;stroke-dasharray:none;fill:none"/>
<title>b'bottom-plate'</title>
</g>
</svg>