<?xml version="1.0" standalone="no"?>
<!DOCTYPE svg PUBLIC "-//W3C//DTD SVG 1.1//EN" "http://www.w3.org/Graphics/SVG/1.1/DTD/svg11.dtd">
<svg width="110mm" height="60mm" viewBox="0 -60 110 60" xmlns="http://www.w3.org/2000/svg" version="1.1">
<title>OpenSCAD Model</title>
<path d="
M 108.39,-0.0384369 L 108.765,-0.152252 L 109.111,-0.337067 L 109.414,-0.5858 L 109.663,-0.88887 L 109.848,-1.23463
 L 109.962,-1.60983 L 110,-2 L 110,-58 L 109.962,-58.3902 L 109.848,-58.7654 L 109.663,-59.1111
 L 109.414,-59.4142 L 109.111,-59.6629 L 108.765,-59.8477 L 108.39,-59.9616 L 108,-60 L 2,-60
 L 1.60983,-59.9616 L 1.23463,-59.8477 L 0.88887,-59.6629 L 0.5858,-59.4142 L 0.337067,-59.1111 L 0.152252,-58.7654
 L 0.0384369,-58.3902 L 0,-58 L 0,-2 L 0.0384369,-1.60983 L 0.152252,-1.23463 L 0.337067,-0.88887
 L 0.5858,-0.5858 L 0.88887,-0.337067 L 1.23463,-0.152252 L 1.60983,-0.0384369 L 2,-0 L 108,-0
 z
M 2.86372,-55.5612 L 2.51526,-55.7387 L 2.23872,-56.0153 L 2.06117,-56.3637 L 2,-56.75 L 2.06117,-57.1363
 L 2.23872,-57.4847 L 2.51526,-57.7613 L 2.86372,-57.9388 L 3.25,-58 L 3.63626,-57.9388 L 3.98473,-57.7613
 L 4.26126,-57.4847 L 4.43881,-57.1363 L 4.5,-56.75 L 4.43881,-56.3637 L 4.26126,-56.0153 L 3.98473,-55.7387
 L 3.63626,-55.5612 L 3.25,-55.5 z
M 106.364,-55.5612 L 106.015,-55.7387 L 105.739,-56.0153 L 105.561,-56.3637 L 105.5,-56.75 L 105.561,-57.1363
 L 105.739,-57.4847 L 106.015,-57.7613 L 106.364,-57.9388 L 106.75,-58 L 107.136,-57.9388 L 107.485,-57.7613
 L 107.761,-57.4847 L 107.939,-57.1363 L 108,-56.75 L 107.939,-56.3637 L 107.761,-56.0153 L 107.485,-55.7387
 L 107.136,-55.5612 L 106.75,-55.5 z
M 65.5,-50.4 L 65.5,-53.4 L 81.2,-53.4 L 81.2,-50.4 z
M 17.4027,-37.4123 L 17.0098,-37.4668 L 16.6253,-37.5641 L 16.2539,-37.7032 L 15.9,-37.8823 L 15.5679,-38.0992
 L 15.2618,-38.3514 L 14.9852,-38.6357 L 14.7416,-38.9487 L 14.5339,-39.2866 L 14.3646,-39.6453 L 14.2358,-40.0204
 L 14.1491,-40.4075 L 14.1055,-40.8017 L 14.1055,-41.1983 L 14.1491,-41.5925 L 14.2358,-41.9796 L 14.3646,-42.3547
 L 14.5339,-42.7134 L 14.7416,-43.0513 L 14.9852,-43.3643 L 15.2618,-43.6486 L 15.5679,-43.9007 L 15.9,-44.1177
 L 16.2539,-44.2968 L 16.6253,-44.4359 L 17.0098,-44.5332 L 17.4027,-44.5877 L 17.7992,-44.5986 L 18.1945,-44.5659
 L 18.5837,-44.4898 L 18.9623,-44.3714 L 19.3255,-44.2121 L 19.669,-44.0138 L 19.9886,-43.7789 L 20.2804,-43.5103
 L 20.5409,-43.2112 L 20.7669,-42.8852 L 20.9557,-42.5364 L 21.1049,-42.1689 L 21.2129,-41.7872 L 21.2781,-41.396
 L 21.3,-41 L 21.2781,-40.604 L 21.2129,-40.2127 L 21.1049,-39.8311 L 20.9557,-39.4636 L 20.7669,-39.1148
 L 20.5409,-38.7888 L 20.2804,-38.4897 L 19.9886,-38.2211 L 19.669,-37.9862 L 19.3255,-37.7879 L 18.9623,-37.6286
 L 18.5837,-37.5101 L 18.1945,-37.4341 L 17.7992,-37.4014 z
M 47.4027,-37.4123 L 47.0098,-37.4668 L 46.6253,-37.5641 L 46.2539,-37.7032 L 45.9,-37.8823 L 45.5679,-38.0992
 L 45.2618,-38.3514 L 44.9852,-38.6357 L 44.7416,-38.9487 L 44.5339,-39.2866 L 44.3646,-39.6453 L 44.2358,-40.0204
 L 44.1491,-40.4075 L 44.1055,-40.8017 L 44.1055,-41.1983 L 44.1491,-41.5925 L 44.2358,-41.9796 L 44.3646,-42.3547
 L 44.5339,-42.7134 L 44.7416,-43.0513 L 44.9852,-43.3643 L 45.2618,-43.6486 L 45.5679,-43.9007 L 45.9,-44.1177
 L 46.2539,-44.2968 L 46.6253,-44.4359 L 47.0098,-44.5332 L 47.4027,-44.5877 L 47.7992,-44.5986 L 48.1945,-44.5659
 L 48.5837,-44.4898 L 48.9623,-44.3714 L 49.3255,-44.2121 L 49.669,-44.0138 L 49.9886,-43.7789 L 50.2804,-43.5103
 L 50.5409,-43.2112 L 50.7669,-42.8852 L 50.9557,-42.5364 L 51.1049,-42.1689 L 51.2129,-41.7872 L 51.2781,-41.396
 L 51.3,-41 L 51.2781,-40.604 L 51.2129,-40.2127 L 51.1049,-39.8311 L 50.9557,-39.4636 L 50.7669,-39.1148
 L 50.5409,-38.7888 L 50.2804,-38.4897 L 49.9886,-38.2211 L 49.669,-37.9862 L 49.3255,-37.7879 L 48.9623,-37.6286
 L 48.5837,-37.5101 L 48.1945,-37.4341 L 47.7992,-37.4014 z
M 77.4027,-37.4123 L 77.0098,-37.4668 L 76.6253,-37.5641 L 76.2539,-37.7032 L 75.9,-37.8823 L 75.5679,-38.0992
 L 75.2618,-38.3514 L 74.9852,-38.6357 L 74.7416,-38.9487 L 74.5339,-39.2866 L 74.3646,-39.6453 L 74.2358,-40.0204
 L 74.1491,-40.4075 L 74.1055,-40.8017 L 74.1055,-41.1983 L 74.1491,-41.5925 L 74.2358,-41.9796 L 74.3646,-42.3547
 L 74.5339,-42.7134 L 74.7416,-43.0513 L 74.9852,-43.3643 L 75.2618,-43.6486 L 75.5679,-43.9007 L 75.9,-44.1177
 L 76.2539,-44.2968 L 76.6253,-44.4359 L 77.0098,-44.5332 L 77.4027,-44.5877 L 77.7992,-44.5986 L 78.1945,-44.5659
 L 78.5837,-44.4898 L 78.9623,-44.3714 L 79.3255,-44.2121 L 79.669,-44.0138 L 79.9886,-43.7789 L 80.2804,-43.5103
 L 80.5409,-43.2112 L 80.7669,-42.8852 L 80.9557,-42.5364 L 81.1049,-42.1689 L 81.2129,-41.7872 L 81.2781,-41.396
 L 81.3,-41 L 81.2781,-40.604 L 81.2129,-40.2127 L 81.1049,-39.8311 L 80.9557,-39.4636 L 80.7669,-39.1148
 L 80.5409,-38.7888 L 80.2804,-38.4897 L 79.9886,-38.2211 L 79.669,-37.9862 L 79.3255,-37.7879 L 78.9623,-37.6286
 L 78.5837,-37.5101 L 78.1945,-37.4341 L 77.7992,-37.4014 z
M 28.8071,-34.1367 L 28.4326,-34.229 L 28.0911,-34.4082 L 27.8024,-34.664 L 27.5833,-34.9814 L 27.4465,-35.3421
 L 27.4,-35.725 L 27.4465,-36.1079 L 27.5833,-36.4686 L 27.8024,-36.786 L 28.0911,-37.0418 L 28.4326,-37.221
 L 28.8071,-37.3133 L 29.1929,-37.3133 L 29.5674,-37.221 L 29.9089,-37.0418 L 30.1976,-36.786 L 30.4167,-36.4686
 L 30.5535,-36.1079 L 30.6,-35.725 L 30.5535,-35.3421 L 30.4167,-34.9814 L 30.1976,-34.664 L 29.9089,-34.4082
 L 29.5674,-34.229 L 29.1929,-34.1367 z
M 88.8071,-34.1367 L 88.4326,-34.229 L 88.0911,-34.4082 L 87.8024,-34.664 L 87.5833,-34.9814 L 87.4465,-35.3421
 L 87.4,-35.725 L 87.4465,-36.1079 L 87.5833,-36.4686 L 87.8024,-36.786 L 88.0911,-37.0418 L 88.4326,-37.221
 L 88.8071,-37.3133 L 89.1929,-37.3133 L 89.5674,-37.221 L 89.9089,-37.0418 L 90.1976,-36.786 L 90.4167,-36.4686
 L 90.5535,-36.1079 L 90.6,-35.725 L 90.5535,-35.3421 L 90.4167,-34.9814 L 90.1976,-34.664 L 89.9089,-34.4082
 L 89.5674,-34.229 L 89.1929,-34.1367 z
M 58.8071,-34.1367 L 58.4326,-34.229 L 58.0911,-34.4082 L 57.8024,-34.664 L 57.5833,-34.9814 L 57.4465,-35.3421
 L 57.4,-35.725 L 57.4465,-36.1079 L 57.5833,-36.4686 L 57.8024,-36.786 L 58.0911,-37.0418 L 58.4326,-37.221
 L 58.8071,-37.3133 L 59.1929,-37.3133 L 59.5674,-37.221 L 59.9089,-37.0418 L 60.1976,-36.786 L 60.4167,-36.4686
 L 60.5535,-36.1079 L 60.6,-35.725 L 60.5535,-35.3421 L 60.4167,-34.9814 L 60.1976,-34.664 L 59.9089,-34.4082
 L 59.5674,-34.229 L 59.1929,-34.1367 z
M 17.4027,-15.4123 L 17.0098,-15.4668 L 16.6253,-15.5641 L 16.2539,-15.7032 L 15.9,-15.8823 L 15.5679,-16.0992
 L 15.2618,-16.3514 L 14.9852,-16.6357 L 14.7416,-16.9487 L 14.5339,-17.2866 L 14.3646,-17.6453 L 14.2358,-18.0204
 L 14.1491,-18.4075 L 14.1055,-18.8017 L 14.1055,-19.1983 L 14.1491,-19.5925 L 14.2358,-19.9796 L 14.3646,-20.3547
 L 14.5339,-20.7134 L 14.7416,-21.0513 L 14.9852,-21.3643 L 15.2618,-21.6486 L 15.5679,-21.9007 L 15.9,-22.1177
 L 16.2539,-22.2968 L 16.6253,-22.4359 L 17.0098,-22.5332 L 17.4027,-22.5877 L 17.7992,-22.5986 L 18.1945,-22.5659
 L 18.5837,-22.4898 L 18.9623,-22.3714 L 19.3255,-22.2121 L 19.669,-22.0138 L 19.9886,-21.7789 L 20.2804,-21.5103
 L 20.5409,-21.2112 L 20.7669,-20.8852 L 20.9557,-20.5364 L 21.1049,-20.1689 L 21.2129,-19.7872 L 21.2781,-19.396
 L 21.3,-19 L 21.2781,-18.604 L 21.2129,-18.2127 L 21.1049,-17.8311 L 20.9557,-17.4636 L 20.7669,-17.1148
 L 20.5409,-16.7888 L 20.2804,-16.4897 L 19.9886,-16.2211 L 19.669,-15.9862 L 19.3255,-15.7879 L 18.9623,-15.6286
 L 18.5837,-15.5101 L 18.1945,-15.4341 L 17.7992,-15.4014 z
M 47.4027,-15.4123 L 47.0098,-15.4668 L 46.6253,-15.5641 L 46.2539,-15.7032 L 45.9,-15.8823 L 45.5679,-16.0992
 L 45.2618,-16.3514 L 44.9852,-16.6357 L 44.7416,-16.9487 L 44.5339,-17.2866 L 44.3646,-17.6453 L 44.2358,-18.0204
 L 44.1491,-18.4075 L 44.1055,-18.8017 L 44.1055,-19.1983 L 44.1491,-19.5925 L 44.2358,-19.9796 L 44.3646,-20.3547
 L 44.5339,-20.7134 L 44.7416,-21.0513 L 44.9852,-21.3643 L 45.2618,-21.6486 L 45.5679,-21.9007 L 45.9,-22.1177
 L 46.2539,-22.2968 L 46.6253,-22.4359 L 47.0098,-22.5332 L 47.4027,-22.5877 L 47.7992,-22.5986 L 48.1945,-22.5659
 L 48.5837,-22.4898 L 48.9623,-22.3714 L 49.3255,-22.2121 L 49.669,-22.0138 L 49.9886,-21.7789 L 50.2804,-21.5103
 L 50.5409,-21.2112 L 50.7669,-20.8852 L 50.9557,-20.5364 L 51.1049,-20.1689 L 51.2129,-19.7872 L 51.2781,-19.396
 L 51.3,-19 L 51.2781,-18.604 L 51.2129,-18.2127 L 51.1049,-17.8311 L 50.9557,-17.4636 L 50.7669,-17.1148
 L 50.5409,-16.7888 L 50.2804,-16.4897 L 49.9886,-16.2211 L 49.669,-15.9862 L 49.3255,-15.7879 L 48.9623,-15.6286
 L 48.5837,-15.5101 L 48.1945,-15.4341 L 47.7992,-15.4014 z
M 77.4027,-15.4123 L 77.0098,-15.4668 L 76.6253,-15.5641 L 76.2539,-15.7032 L 75.9,-15.8823 L 75.5679,-16.0992
 L 75.2618,-16.3514 L 74.9852,-16.6357 L 74.7416,-16.9487 L 74.5339,-17.2866 L 74.3646,-17.6453 L 74.2358,-18.0204
 L 74.1491,-18.4075 L 74.1055,-18.8017 L 74.1055,-19.1983 L 74.1491,-19.5925 L 74.2358,-19.9796 L 74.3646,-20.3547
 L 74.5339,-20.7134 L 74.7416,-21.0513 L 74.9852,-21.3643 L 75.2618,-21.6486 L 75.5679,-21.9007 L 75.9,-22.1177
 L 76.2539,-22.2968 L 76.6253,-22.4359 L 77.0098,-22.5332 L 77.4027,-22.5877 L 77.7992,-22.5986 L 78.1945,-22.5659
 L 78.5837,-22.4898 L 78.9623,-22.3714 L 79.3255,-22.2121 L 79.669,-22.0138 L 79.9886,-21.7789 L 80.2804,-21.5103
 L 80.5409,-21.2112 L 80.7669,-20.8852 L 80.9557,-20.5364 L 81.1049,-20.1689 L 81.2129,-19.7872 L 81.2781,-19.396
 L 81.3,-19 L 81.2781,-18.604 L 81.2129,-18.2127 L 81.1049,-17.8311 L 80.9557,-17.4636 L 80.7669,-17.1148
 L 80.5409,-16.7888 L 80.2804,-16.4897 L 79.9886,-16.2211 L 79.669,-15.9862 L 79.3255,-15.7879 L 78.9623,-15.6286
 L 78.5837,-15.5101 L 78.1945,-15.4341 L 77.7992,-15.4014 z
M 28.8071,-12.1367 L 28.4326,-12.229 L 28.0911,-12.4082 L 27.8024,-12.664 L 27.5833,-12.9814 L 27.4465,-13.3421
 L 27.4,-13.725 L 27.4465,-14.1079 L 27.5833,-14.4686 L 27.8024,-14.786 L 28.0911,-15.0418 L 28.4326,-15.221
 L 28.8071,-15.3133 L 29.1929,-15.3133 L 29.5674,-15.221 L 29.9089,-15.0418 L 30.1976,-14.786 L 30.4167,-14.4686
 L 30.5535,-14.1079 L 30.6,-13.725 L 30.5535,-13.3421 L 30.4167,-12.9814 L 30.1976,-12.664 L 29.9089,-12.4082
 L 29.5674,-12.229 L 29.1929,-12.1367 z
M 58.8071,-12.1367 L 58.4326,-12.229 L 58.0911,-12.4082 L 57.8024,-12.664 L 57.5833,-12.9814 L 57.4465,-13.3421
 L 57.4,-13.725 L 57.4465,-14.1079 L 57.5833,-14.4686 L 57.8024,-14.786 L 58.0911,-15.0418 L 58.4326,-15.221
 L 58.8071,-15.3133 L 59.1929,-15.3133 L 59.5674,-15.221 L 59.9089,-15.0418 L 60.1976,-14.786 L 60.4167,-14.4686
 L 60.5535,-14.1079 L 60.6,-13.725 L 60.5535,-13.3421 L 60.4167,-12.9814 L 60.1976,-12.664 L 59.9089,-12.4082
 L 59.5674,-12.229 L 59.1929,-12.1367 z
M 88.8071,-12.1367 L 88.4326,-12.229 L 88.0911,-12.4082 L 87.8024,-12.664 L 87.5833,-12.9814 L 87.4465,-13.3421
 L 87.4,-13.725 L 87.4465,-14.1079 L 87.5833,-14.4686 L 87.8024,-14.786 L 88.0911,-15.0418 L 88.4326,-15.221
 L 88.8071,-15.3133 L 89.1929,-15.3133 L 89.5674,-15.221 L 89.9089,-15.0418 L 90.1976,-14.786 L 90.4167,-14.4686
 L 90.5535,-14.1079 L 90.6,-13.725 L 90.5535,-13.3421 L 90.4167,-12.9814 L 90.1976,-12.664 L 89.9089,-12.4082
 L 89.5674,-12.229 L 89.1929,-12.1367 z
M 106.364,-2.06117 L 106.015,-2.23872 L 105.739,-2.51526 L 105.561,-2.86372 L 105.5,-3.25 L 105.561,-3.63626
 L 105.739,-3.98473 L 106.015,-4.26126 L 106.364,-4.43881 L 106.75,-4.5 L 107.136,-4.43881 L 107.485,-4.26126
 L 107.761,-3.98473 L 107.939,-3.63626 L 108,-3.25 L 107.939,-2.86372 L 107.761,-2.51526 L 107.485,-2.23872
 L 107.136,-2.06117 L 106.75,-2 z
M 2.86372,-2.06117 L 2.51526,-2.23872 L 2.23872,-2.51526 L 2.06117,-2.86372 L 2,-3.25 L 2.06117,-3.63626
 L 2.23872,-3.98473 L 2.51526,-4.26126 L 2.86372,-4.43881 L 3.25,-4.5 L 3.63626,-4.43881 L 3.98473,-4.26126
 L 4.26126,-3.98473 L 4.43881,-3.63626 L 4.5,-3.25 L 4.43881,-2.86372 L 4.26126,-2.51526 L 3.98473,-2.23872
 L 3.63626,-2.06117 L 3.25,-2 z
" stroke="black" fill="lightgray" stroke-width="0.5"/>
</svg>
